<svg version="1.1" id="Layer_1" xmlns="http://www.w3.org/2000/svg" xmlns:xlink="http://www.w3.org/1999/xlink" x="0px" y="0px"
	 width="100%" viewBox="0 0 1024 1024" enable-background="new 0 0 1024 1024" xml:space="preserve">
<path fill="#F8FAFC" opacity="1.000000" stroke="none" 
	d="
M438.420288,780.000122 
	C438.420776,802.875488 438.420776,825.250793 438.420776,848.889771 
	C427.409149,842.221741 417.625549,836.258118 407.804169,830.357422 
	C379.101349,813.112976 350.384430,795.892029 321.671295,778.664734 
	C284.243774,756.208923 246.830887,733.728638 209.355484,711.353088 
	C206.304962,709.531738 205.602692,707.180237 205.609634,703.912842 
	C205.674728,673.246521 205.680588,642.579895 205.604767,611.913574 
	C205.525726,579.940674 205.202713,547.967957 205.225922,515.995361 
	C205.270447,454.678711 205.522049,393.362183 205.545547,332.045563 
	C205.547165,327.850464 206.931915,325.574066 210.572876,323.397003 
	C241.457977,304.929657 272.153473,286.145660 302.980865,267.581268 
	C346.938782,241.109650 390.974243,214.766846 434.948944,188.323135 
	C459.506622,173.555664 484.044647,158.754501 508.491516,143.805023 
	C511.671326,141.860550 514.055542,142.000290 517.120178,143.851913 
	C564.322083,172.370834 611.577087,200.802063 658.819885,229.253387 
	C684.511353,244.725708 710.216980,260.174530 735.877747,275.697662 
	C739.218201,277.718445 742.939331,279.301239 745.886169,283.029694 
	C679.265015,323.873260 612.916199,364.549866 546.089355,405.519531 
	C552.351379,410.814697 558.870667,413.846130 564.893250,417.607758 
	C575.489441,424.225983 586.348816,430.421600 596.989685,436.970154 
	C599.889709,438.754883 602.230469,438.950104 605.233643,437.112213 
	C651.844543,408.587250 698.513184,380.156677 745.167297,351.702301 
	C762.947083,340.858368 780.754028,330.058319 798.471069,319.112823 
	C801.292969,317.369507 803.460693,317.569122 806.238403,319.227234 
	C817.343933,325.856323 819.433716,330.398315 817.044373,343.123230 
	C816.486206,346.095581 814.192932,347.078827 812.125610,348.346191 
	C785.990662,364.367920 759.835999,380.357422 733.673462,396.334076 
	C678.222290,430.196381 622.767273,464.052399 567.304688,497.896027 
	C556.212524,504.664520 545.146423,511.480560 533.925537,518.030090 
	C530.516052,520.020142 529.063599,522.285339 529.067993,526.349304 
	C529.191833,641.848816 529.216858,757.348450 529.187805,872.848022 
	C529.184570,885.805969 531.314453,884.863342 517.227722,884.883667 
	C512.894409,884.889893 508.561005,884.895569 504.227783,884.875122 
	C497.059570,884.841309 496.894135,884.671814 496.895142,877.651733 
	C496.899353,847.318604 496.909882,816.985474 496.909668,786.652344 
	C496.909088,700.319458 496.856903,613.986450 497.021912,527.653870 
	C497.031586,522.601929 495.282349,519.787170 491.138184,517.300964 
	C431.561523,481.559753 372.059174,445.694702 312.525970,409.881012 
	C289.827271,396.226074 267.117188,382.589783 244.365234,369.023926 
	C237.957993,365.203613 237.347229,365.629547 237.339737,373.215363 
	C237.321777,391.382019 237.434921,409.549500 237.269592,427.714600 
	C237.235458,431.465607 238.284195,433.753998 241.628708,435.764648 
	C291.320465,465.638123 340.933777,495.642120 390.550171,525.640869 
	C405.376984,534.605408 420.124268,543.701965 434.987335,552.605591 
	C437.604950,554.173645 438.525787,555.971313 438.520538,559.035400 
	C438.420166,617.532898 438.439423,676.030640 438.432495,734.528320 
	C438.430725,749.518921 438.424164,764.509521 438.420288,780.000122 
M281.893127,497.667999 
	C267.569611,489.004395 253.246063,480.340820 239.087769,471.777191 
	C237.120087,473.796478 237.360519,475.527832 237.360229,477.161041 
	C237.347229,546.985291 237.367584,616.809570 237.290771,686.633728 
	C237.287369,689.730530 238.387222,691.518066 241.023331,692.969788 
	C246.420303,695.941772 251.698929,699.132568 256.981750,702.307373 
	C304.958344,731.140015 352.920471,759.996643 400.916321,788.797058 
	C402.513611,789.755493 403.946014,791.506165 406.709351,790.731506 
	C406.709351,789.138428 406.709045,787.502136 406.709412,785.865784 
	C406.713531,767.701538 406.450134,749.531067 406.874146,731.376587 
	C407.013550,725.408447 405.046143,722.150085 399.964874,719.130371 
	C367.315186,699.727539 334.908386,679.916321 302.304626,660.435364 
	C298.192749,657.978394 296.708191,655.151672 296.726501,650.420471 
	C296.890259,608.093384 296.279694,565.753784 297.174377,523.444885 
	C297.440552,510.856995 294.631500,502.370056 281.893127,497.667999 
M388.197235,253.757904 
	C372.654388,263.215363 357.111542,272.672791 341.094635,282.418701 
	C342.937561,283.919586 343.867310,284.882019 344.975159,285.548309 
	C361.957458,295.761902 378.986694,305.897644 395.935364,316.166534 
	C398.263672,317.577179 399.910126,316.807556 401.859344,315.628662 
	C436.910126,294.429382 472.036072,273.353394 506.978973,251.978119 
	C511.489990,249.218643 514.671143,249.406891 519.068237,252.080856 
	C554.069763,273.366028 589.238647,294.375763 624.303955,315.556549 
	C626.767395,317.044556 628.629089,317.149353 631.095276,315.572205 
	C635.716980,312.616516 640.534485,309.955627 645.356995,307.330994 
	C647.270691,306.289459 649.749512,305.277100 650.714722,308.360931 
	C651.853943,312.000885 654.193542,311.677521 657.014099,311.096619 
	C661.739258,310.123535 666.506531,309.196014 671.360107,309.623688 
	C680.205200,310.403076 682.647583,308.824127 685.039673,300.446991 
	C686.634827,294.860809 683.938965,291.519226 678.223938,292.168304 
	C675.396912,292.489380 672.603760,293.108215 668.766113,293.769714 
	C673.941101,288.831390 679.580994,286.524567 684.876160,282.441132 
	C682.077087,280.659241 679.899719,279.210938 677.663818,277.859467 
	C657.286865,265.542389 636.910278,253.224777 616.513306,240.940964 
	C583.419678,221.010727 550.289673,201.140762 517.242676,181.133560 
	C514.117065,179.241257 511.700714,179.248154 508.575195,181.140030 
	C468.693481,205.280670 428.741882,229.305847 388.197235,253.757904 
M282.105988,317.653076 
	C272.799927,323.916718 262.480499,328.641510 253.691040,335.550385 
	C254.656845,337.645294 256.077667,338.247833 257.341400,339.002777 
	C288.804108,357.798767 320.319397,376.507202 351.731201,395.387848 
	C404.135437,426.886353 456.497070,458.456146 508.789795,490.139221 
	C512.313293,492.274048 514.794250,492.184967 518.216248,490.049988 
	C533.055237,480.791840 548.094116,471.854431 563.010437,462.719025 
	C564.896179,461.564148 567.339355,460.873413 568.102478,458.310944 
	C566.767822,456.106934 564.455750,455.340607 562.502625,454.164124 
	C500.998047,417.116577 439.479828,380.091766 377.950531,343.085327 
	C356.537964,330.206818 335.050873,317.451630 313.698334,304.474640 
	C310.076569,302.273499 307.209961,302.286438 303.669495,304.587494 
	C296.829834,309.032745 289.725464,313.070709 282.105988,317.653076 
M329.095764,578.499756 
	C329.065125,596.492676 329.177063,614.487732 328.907776,632.477051 
	C328.836761,637.218628 330.363251,640.126038 334.463989,642.549194 
	C354.105804,654.155518 373.588715,666.030518 393.153412,677.767883 
	C397.210083,680.201660 401.374390,682.456116 405.518311,684.809814 
	C406.923981,682.916016 406.669434,681.379761 406.670105,679.927734 
	C406.686035,645.773621 406.643616,611.619324 406.752563,577.465515 
	C406.763062,574.167664 405.484528,572.271606 402.804810,570.660095 
	C380.254852,557.098450 357.759094,543.446655 335.217224,529.871521 
	C333.602844,528.899231 332.078979,527.270386 329.069489,528.355713 
	C329.069489,544.601685 329.069489,561.050842 329.095764,578.499756 
M539.519653,302.051056 
	C532.267761,297.632172 524.918579,293.362701 517.806580,288.729156 
	C514.430603,286.529602 511.784149,286.545624 508.298187,288.676636 
	C484.006958,303.525970 459.575623,318.146027 435.233734,332.912964 
	C433.654266,333.871124 431.440033,334.361389 430.921112,336.987885 
	C431.943481,337.728455 432.945068,338.576813 434.056702,339.241119 
	C459.354492,354.360382 484.693726,369.410736 509.932556,384.627594 
	C512.894470,386.413452 515.067200,386.503357 518.056824,384.661652 
	C542.012024,369.904327 566.070374,355.314545 590.101685,340.681000 
	C596.151184,336.997314 596.216736,336.111969 590.252258,332.511658 
	C573.573059,322.443665 556.856079,312.438171 539.519653,302.051056 
z"/>
<path fill="#F8FAFC" opacity="1.000000" stroke="none" 
	d="
M587.578369,735.844849 
	C587.579041,707.383301 587.755859,679.402100 587.525696,651.424316 
	C587.342224,629.122375 587.994812,606.819702 587.206116,584.516174 
	C586.912292,576.208130 587.595093,567.869751 587.539612,559.547180 
	C587.517944,556.302490 588.685913,554.432129 591.431335,552.765442 
	C619.477966,535.738281 647.415161,518.530884 675.452637,501.488586 
	C721.994080,473.198914 768.585693,444.991791 815.163086,416.761261 
	C816.556885,415.916473 817.796631,414.669159 820.135864,414.768280 
	C821.761353,419.516632 820.789124,424.490234 820.744019,429.359161 
	C820.588318,446.166626 820.215210,462.966736 820.586731,479.782593 
	C820.880676,493.086487 820.410522,506.405670 820.400391,519.718140 
	C820.354004,580.687561 820.307190,641.656982 820.419189,702.626160 
	C820.427490,707.131836 819.138550,709.771240 815.129272,712.173767 
	C742.122253,755.922241 669.221008,799.847290 596.279907,843.705933 
	C593.750244,845.226990 591.404724,847.160095 587.705322,848.048950 
	C587.254761,810.627808 587.121033,773.479431 587.578369,735.844849 
M619.256165,739.504028 
	C619.256165,756.693787 619.256165,773.883545 619.256165,791.143799 
	C622.500732,790.972107 624.066956,789.630127 625.752563,788.615906 
	C678.546814,756.850281 731.316772,725.044006 784.148315,693.340576 
	C787.385376,691.398132 788.741516,689.158508 788.736084,685.336731 
	C788.637573,616.539917 788.662415,547.742859 788.627502,478.945831 
	C788.626343,476.681061 789.108582,474.247498 787.342102,472.275421 
	C784.940063,472.086121 783.218140,473.576447 781.412292,474.672241 
	C765.326538,484.432831 749.335388,494.351105 733.168152,503.974060 
	C729.955261,505.886414 729.015991,508.114532 729.023621,511.636017 
	C729.123535,557.777161 729.033752,603.918823 729.228271,650.059387 
	C729.249817,655.182495 727.647339,658.220398 723.222290,660.861389 
	C692.768066,679.037354 662.716736,697.905701 631.959229,715.546082 
	C622.207092,721.139282 616.879150,727.169128 619.256165,739.504028 
M619.295593,629.500000 
	C619.295593,647.819580 619.295593,666.139160 619.295593,684.481079 
	C622.181519,684.560608 623.429016,683.688965 624.697571,682.924316 
	C647.365845,669.262024 669.998047,655.539429 692.727722,641.980164 
	C695.870789,640.105225 696.911377,637.849121 696.900391,634.293518 
	C696.795593,600.493103 696.849182,566.692322 696.811401,532.891663 
	C696.809509,531.169617 697.473572,529.192810 695.716492,527.829224 
	C693.884583,527.823181 692.492004,528.799194 691.085754,529.651978 
	C668.315308,543.459351 645.574585,557.315979 622.772766,571.071289 
	C620.178650,572.636230 619.206177,574.518188 619.228882,577.549194 
	C619.356384,594.532043 619.292419,611.516235 619.295593,629.500000 
z"/>
</svg>